<svg xmlns="http://www.w3.org/2000/svg" viewBox="0 0 36 24" width="36" height="24">
  <rect width="36" height="24" rx="2" fill="#DE2910"/>
  <g fill="#FFDE00" transform="translate(7.5 7.5)">
    <path d="M0-4.2 L0.95-1.3 L4-1.3 L1.55 0.5 L2.5 3.4 L0 1.6 L-2.5 3.4 L-1.55 0.5 L-4-1.3 L-0.95-1.3 Z"/>
  </g>
  <g fill="#FFDE00" transform="translate(15 4.2) scale(0.32)">
    <path d="M0-4.2 L0.95-1.3 L4-1.3 L1.55 0.5 L2.5 3.4 L0 1.6 L-2.5 3.4 L-1.55 0.5 L-4-1.3 L-0.95-1.3 Z"/>
  </g>
  <g fill="#FFDE00" transform="translate(17.8 7.2) scale(0.32)">
    <path d="M0-4.2 L0.95-1.3 L4-1.3 L1.55 0.5 L2.5 3.4 L0 1.6 L-2.5 3.4 L-1.55 0.5 L-4-1.3 L-0.95-1.3 Z"/>
  </g>
  <g fill="#FFDE00" transform="translate(17.8 11) scale(0.32)">
    <path d="M0-4.2 L0.95-1.3 L4-1.3 L1.55 0.5 L2.5 3.4 L0 1.6 L-2.5 3.4 L-1.55 0.5 L-4-1.3 L-0.95-1.3 Z"/>
  </g>
  <g fill="#FFDE00" transform="translate(15 14) scale(0.32)">
    <path d="M0-4.2 L0.95-1.3 L4-1.3 L1.55 0.5 L2.5 3.4 L0 1.6 L-2.5 3.4 L-1.55 0.5 L-4-1.3 L-0.95-1.3 Z"/>
  </g>
</svg>
