<?xml version="1.0" encoding="UTF-8"?>
<svg xmlns="http://www.w3.org/2000/svg" viewBox="0 0 512 512" width="512" height="512">
  <rect width="512" height="512" fill="#000000"/>
  <rect x="56" y="56" width="400" height="400" rx="72" ry="72" fill="none" stroke="#22d3ee" stroke-width="28"/>
  
  <!-- grid -->
  <line x1="120" y1="360" x2="400" y2="360" stroke="#22d3ee" stroke-width="10" stroke-linecap="round" opacity="0.45"/>
  <line x1="120" y1="300" x2="400" y2="300" stroke="#22d3ee" stroke-width="6" stroke-linecap="round" opacity="0.25"/>
  <line x1="120" y1="240" x2="400" y2="240" stroke="#22d3ee" stroke-width="6" stroke-linecap="round" opacity="0.25"/>
  <line x1="120" y1="180" x2="400" y2="180" stroke="#22d3ee" stroke-width="6" stroke-linecap="round" opacity="0.25"/>
  <!-- telemetry line -->
  <polyline points="120,340 155,300 190,320 230,250 270,270 310,190 350,220 400,140" fill="none" stroke="#22d3ee" stroke-width="20" stroke-linecap="round" stroke-linejoin="round"/>
  <circle cx="155" cy="300" r="10" fill="#22d3ee"/>
  <circle cx="230" cy="250" r="10" fill="#22d3ee"/>
  <circle cx="310" cy="190" r="10" fill="#22d3ee"/>
  <circle cx="400" cy="140" r="12" fill="#22d3ee"/>
  <!-- tiny bars -->
  <rect x="130" y="372" width="14" height="28" rx="3" fill="#22d3ee"/>
  <rect x="156" y="360" width="14" height="40" rx="3" fill="#22d3ee"/>
  <rect x="182" y="366" width="14" height="34" rx="3" fill="#22d3ee"/>

</svg>
