<?xml version="1.0" encoding="UTF-8"?>
<svg xmlns="http://www.w3.org/2000/svg" viewBox="0 0 512 512" width="512" height="512">
  <rect width="512" height="512" fill="#000000"/>
  <rect x="56" y="56" width="400" height="400" rx="72" ry="72" fill="none" stroke="#22d3ee" stroke-width="28"/>
  
  <rect x="118" y="205" width="276" height="160" rx="28" fill="none" stroke="#22d3ee" stroke-width="22"/>
  <rect x="148" y="235" width="34" height="28" rx="6" fill="#22d3ee"/>
  <rect x="194" y="235" width="34" height="28" rx="6" fill="#22d3ee"/>
  <rect x="240" y="235" width="34" height="28" rx="6" fill="#22d3ee"/>
  <rect x="286" y="235" width="34" height="28" rx="6" fill="#22d3ee"/>
  <rect x="332" y="235" width="34" height="28" rx="6" fill="#22d3ee"/>
  <rect x="148" y="280" width="218" height="28" rx="6" fill="#22d3ee"/>
  <rect x="148" y="320" width="50" height="22" rx="5" fill="#22d3ee" opacity="0.55"/>
  <rect x="210" y="320" width="50" height="22" rx="5" fill="#22d3ee" opacity="0.55"/>
  <rect x="272" y="320" width="94" height="22" rx="5" fill="#22d3ee" opacity="0.55"/>
  <line x1="155" y1="145" x2="360" y2="390" stroke="#22d3ee" stroke-width="26" stroke-linecap="round"/>
  <line x1="360" y1="145" x2="155" y2="390" stroke="#22d3ee" stroke-width="26" stroke-linecap="round"/>

</svg>
