<svg xmlns="http://www.w3.org/2000/svg" viewBox="0 0 128 44" fill="none" aria-hidden="true" shape-rendering="geometricPrecision">
  <path
    fill="currentColor"
    d="M 2.5 31.6 V 19.8 C 2.5 15.8 5.8 12.2 10.6 10.6 C 13.4 9.6 16.6 9.2 19.8 9.2 C 21.8 8.7 24 8.5 26.2 8.9 C 27.4 9.1 28.2 9.7 28.4 10.5 V 11 H 105.6 C 106.6 11 107.2 10.5 107.3 9.7 V 8.4 H 109.9 V 7.2 H 112.6 V 8.4 H 115.1 V 11.2 H 28.6 V 12.5 H 34 C 40 12.5 44 14 46.5 17.5 C 49 21 52 26.8 52.8 26.8 H 33.4 C 30.2 26.8 28.4 25 28.4 22.4 V 20.4 H 26.4 C 25 20.4 24.2 19.2 24.8 17.8 C 25.4 16.4 27 15.5 28.8 15.5 H 30.4 V 14.6 H 16.8 C 11.6 14.6 7.8 17.6 5.8 21.4 L 2.5 31.6 Z"
  />
</svg>
