<svg xmlns="http://www.w3.org/2000/svg" viewBox="0 0 512 512" width="512" height="512">
  <rect width="512" height="512" fill="#000000"/>
  <rect x="56" y="56" width="400" height="400" rx="72" ry="72" fill="none" stroke="#22d3ee" stroke-width="28"/>

  <!-- practice bot -->
  <g>
    <!-- antenna -->
    <line x1="196" y1="148" x2="196" y2="118" stroke="#22d3ee" stroke-width="12" stroke-linecap="round"/>
    <circle cx="196" cy="108" r="11" fill="#22d3ee"/>
    <!-- head -->
    <circle cx="196" cy="188" r="40" fill="#22d3ee"/>
    <!-- visor / eyes -->
    <rect x="172" y="176" width="48" height="18" rx="9" fill="#000000"/>
    <circle cx="184" cy="185" r="5" fill="#22d3ee"/>
    <circle cx="208" cy="185" r="5" fill="#22d3ee"/>
    <!-- neck -->
    <rect x="186" y="226" width="20" height="16" rx="6" fill="#22d3ee"/>
    <!-- torso -->
    <rect x="158" y="238" width="76" height="96" rx="24" fill="#22d3ee"/>
    <!-- chest panel -->
    <rect x="174" y="258" width="44" height="36" rx="10" fill="#000000" opacity="0.35"/>
    <!-- legs -->
    <rect x="166" y="328" width="24" height="42" rx="10" fill="#22d3ee"/>
    <rect x="202" y="328" width="24" height="42" rx="10" fill="#22d3ee"/>
  </g>

  <!-- offline target -->
  <g>
    <circle cx="338" cy="248" r="78" fill="none" stroke="#22d3ee" stroke-width="18"/>
    <circle cx="338" cy="248" r="48" fill="none" stroke="#22d3ee" stroke-width="14"/>
    <circle cx="338" cy="248" r="22" fill="none" stroke="#22d3ee" stroke-width="12"/>
    <circle cx="338" cy="248" r="8" fill="#22d3ee"/>
    <!-- tick marks -->
    <line x1="338" y1="158" x2="338" y2="172" stroke="#22d3ee" stroke-width="10" stroke-linecap="round"/>
    <line x1="338" y1="324" x2="338" y2="338" stroke="#22d3ee" stroke-width="10" stroke-linecap="round"/>
    <line x1="248" y1="248" x2="262" y2="248" stroke="#22d3ee" stroke-width="10" stroke-linecap="round"/>
    <line x1="414" y1="248" x2="428" y2="248" stroke="#22d3ee" stroke-width="10" stroke-linecap="round"/>
  </g>
</svg>
