<?xml version="1.0" encoding="UTF-8"?>
<svg xmlns="http://www.w3.org/2000/svg" viewBox="0 0 512 512" width="512" height="512">
  <rect width="512" height="512" fill="#000000"/>
  <rect x="56" y="56" width="400" height="400" rx="72" ry="72" fill="none" stroke="#22d3ee" stroke-width="28"/>
  
  <g transform="translate(256,300)">
    <circle cx="0" cy="48" r="16" fill="#22d3ee"/>
    <path d="M-42 18 A52 52 0 0 1 42 18" fill="none" stroke="#22d3ee" stroke-width="20" stroke-linecap="round"/>
    <path d="M-78 -22 A95 95 0 0 1 78 -22" fill="none" stroke="#22d3ee" stroke-width="20" stroke-linecap="round"/>
    <path d="M-114 -62 A138 138 0 0 1 114 -62" fill="none" stroke="#22d3ee" stroke-width="20" stroke-linecap="round"/>
    <path d="M-146 -98 A176 176 0 0 1 146 -98" fill="none" stroke="#22d3ee" stroke-width="16" stroke-linecap="round" opacity="0.45"/>
  </g>
  <!-- packet dashes -->
  <circle cx="360" cy="170" r="8" fill="#22d3ee"/>
  <circle cx="380" cy="200" r="6" fill="#22d3ee" opacity="0.6"/>
  <circle cx="150" cy="180" r="7" fill="#22d3ee" opacity="0.5"/>

</svg>
